PathFileType	4	(X/Y/Z)	./resultDataOpenSim/trcMotMarkerGrf/sub06/qtm-05-03.trc
DataRate	CameraRate	NumFrames	NumMarkers	Units	OrigDataRate	OrigDataStartFrame	OrigNumFrames
250.000000	250.000000	13	24	m	250.000000	456	520
Frame#	Time	L.Toe.Tip			R.Toe.Tip			L.Ankle.Lat			R.Ankle.Lat			L.Ankle.Med			R.Ankle.Med			L.Heel			R.Heel			L.Knee.Lat			R.Knee.Lat			L.Knee.Med			R.Knee.Med			L.Thigh.Upper			R.Thigh.Upper			L.ASIS			R.ASIS			V.Sacral			L.Acromium			R.Acromium			C7			L.Elbow			R.Elbow			L.Wrist.Lat			R.Wrist.Lat
		X1	Y1	Z1	X2	Y2	Z2	X3	Y3	Z3	X4	Y4	Z4	X5	Y5	Z5	X6	Y6	Z6	X7	Y7	Z7	X8	Y8	Z8	X9	Y9	Z9	X10	Y10	Z10	X11	Y11	Z11	X12	Y12	Z12	X13	Y13	Z13	X14	Y14	Z14	X15	Y15	Z15	X16	Y16	Z16	X17	Y17	Z17	X18	Y18	Z18	X19	Y19	Z19	X20	Y20	Z20	X21	Y21	Z21	X22	Y22	Z22	X23	Y23	Z23	X24	Y24	Z24

456	1.82	1.6833071	0.033503778	0.0053096761	1.0418898	0.07090935	0.17270915	1.5575425	0.066875036	-0.013082413	1.0449174	0.20918452	0.20805497	1.5613155	0.07976007	0.073636068	1.08494	0.19914746	0.12797327	1.483397	0.040404212	0.03236278	1.0238736	0.25653774	0.14474268	1.6011604	0.43906711	-0.03287046	1.388408	0.38572446	0.24309754	1.5804765	0.43527496	0.085475477	1.3908823	0.3610201	0.10956343	1.4496528	0.80847001	-0.093562783	1.314261	0.76560577	0.25125762	1.5076763	0.84666076	-0.037457358	1.483821	0.81374128	0.2043408	1.3057492	0.8970416	0.082858224	1.4150928	1.3037733	-0.10610961	1.4268941	1.3026431	0.25778603	1.3375046	1.3409932	0.077034339	1.3100761	1.0108813	-0.1480612	1.3972494	0.98069087	0.33051717	1.3697597	0.78590865	-0.22118894	1.6104404	0.8596584	0.30060412
457	1.824	1.6832217	0.033494276	0.0051597553	1.0564313	0.07344693	0.17361788	1.5573863	0.06677262	-0.013162212	1.057093	0.21198176	0.20807178	1.5613933	0.079884223	0.073512097	1.0971711	0.20220198	0.12806019	1.4832946	0.040399711	0.032247437	1.0351871	0.25856027	0.14466598	1.6031087	0.43849276	-0.033547597	1.4004958	0.38709959	0.24394737	1.5828349	0.43467437	0.084900319	1.4028783	0.36320532	0.10989465	1.4550883	0.80955394	-0.093947601	1.3213228	0.76661597	0.25063972	1.5133068	0.84773216	-0.037920891	1.4897343	0.81529145	0.20414783	1.3115779	0.8985754	0.082407894	1.4215324	1.305108	-0.10635414	1.4323741	1.3040882	0.25770251	1.3435596	1.3424816	0.076652044	1.3181692	1.0112873	-0.14885992	1.4014283	0.9822248	0.32958189	1.3810329	0.78658634	-0.22036164	1.6128368	0.85780229	0.30130336
458	1.828	1.6831353	0.033495742	0.0050194685	1.0715638	0.075839076	0.1742831	1.5572491	0.066676273	-0.013204724	1.0695335	0.21457664	0.20801979	1.5614879	0.080014519	0.073408288	1.1095843	0.20501026	0.12808738	1.4831856	0.040374493	0.032174707	1.0465763	0.2603049	0.14470614	1.6049805	0.4379989	-0.034111483	1.4126023	0.38863898	0.24476468	1.5848978	0.43412135	0.084447542	1.4146887	0.3656175	0.11016187	1.4604543	0.8105753	-0.094326682	1.3285522	0.76767432	0.25000915	1.5188931	0.84881018	-0.038367002	1.4956323	0.81691893	0.20399932	1.3174525	0.90015491	0.082032923	1.4279082	1.3065145	-0.10657234	1.4377885	1.3055834	0.25764608	1.3495617	1.343995	0.076291715	1.3263621	1.0117466	-0.14951726	1.4052976	0.98378561	0.32866391	1.3923986	0.78739115	-0.21949158	1.6151361	0.85602386	0.30202029
459	1.832	1.6830435	0.033501567	0.004885628	1.0871803	0.078032096	0.17496241	1.5571267	0.066586395	-0.013204977	1.0822552	0.21687798	0.20791613	1.5615765	0.080133968	0.073325542	1.1221979	0.2074532	0.12807319	1.4830865	0.040314793	0.032251756	1.0579981	0.26173367	0.14487758	1.606803	0.43758581	-0.034557082	1.4246562	0.39031404	0.24556468	1.5867064	0.43365059	0.084109498	1.4264848	0.36811072	0.11056175	1.4657509	0.81154327	-0.094705763	1.3359509	0.76878187	0.24936812	1.5244344	0.84990342	-0.03880774	1.5015479	0.81861741	0.20387846	1.3233562	0.90174375	0.081670827	1.4342159	1.307994	-0.1067691	1.4431377	1.3071221	0.25761555	1.3555123	1.3455311	0.075944756	1.3345994	1.0122556	-0.1501139	1.4088796	0.98537289	0.32779381	1.4038491	0.78832426	-0.2185829	1.6173287	0.85433349	0.30275893
460	1.836	1.6829512	0.033506314	0.0047600376	1.1032527	0.080019231	0.17577319	1.5570193	0.066498259	-0.013158292	1.0952079	0.21881783	0.20777209	1.5616476	0.080236279	0.073260494	1.1350335	0.20950399	0.12804605	1.4830102	0.040242125	0.032457766	1.0695281	0.26280312	0.14498515	1.6085972	0.43725448	-0.034880878	1.4366196	0.39211837	0.24634873	1.5883259	0.43328664	0.083872199	1.4383564	0.37061709	0.11117492	1.4709993	0.8124709	-0.095096591	1.3435202	0.76993958	0.24871889	1.5299409	0.85100998	-0.039253982	1.5074855	0.8203849	0.20377199	1.329272	0.90333314	0.081288522	1.4404562	1.3095408	-0.10694563	1.448426	1.3087001	0.25761121	1.3614111	1.3470802	0.075609209	1.3428573	1.0128175	-0.15069771	1.4123851	0.98699803	0.32698466	1.4153808	0.7893817	-0.21763625	1.6194184	0.85273308	0.30352056
461	1.84	1.6828706	0.033509269	0.0046487285	1.1196911	0.081801523	0.17671989	1.5569261	0.0664261	-0.013105491	1.1083001	0.2203828	0.20759094	1.5617072	0.080327888	0.073208905	1.1480895	0.21119882	0.1280222	1.4829541	0.040197716	0.03265483	1.0813563	0.26349964	0.14471315	1.6103759	0.43700231	-0.035082901	1.4485108	0.3940608	0.24711033	1.5897943	0.43303615	0.083721101	1.4502511	0.37314211	0.11194639	1.4762323	0.81336508	-0.095508934	1.3512618	0.77114841	0.24806349	1.5354256	0.85212414	-0.039713927	1.5134293	0.82221732	0.20366824	1.3351761	0.90494126	0.080888107	1.4466338	1.3111442	-0.1070989	1.4536771	1.310311	0.25762728	1.3672603	1.3486375	0.075288668	1.3511326	1.0134306	-0.15128918	1.4161435	0.98865863	0.32622336	1.4269921	0.79055895	-0.21665362	1.6214213	0.85122094	0.3043042
462	1.844	1.6828102	0.033513375	0.0045571863	1.1362705	0.083352537	0.17781424	1.5568413	0.066402867	-0.013123056	1.1214732	0.22161758	0.20737481	1.5617688	0.080417149	0.073169257	1.1613386	0.21257571	0.12798737	1.4829073	0.040202491	0.032745508	1.0935969	0.26382779	0.14393192	1.6121385	0.43681728	-0.035170706	1.4603939	0.39615469	0.24784158	1.5911	0.43288789	0.083642693	1.4620833	0.37572183	0.11274027	1.4814702	0.81422701	-0.095943673	1.3591784	0.77240971	0.24740318	1.5408892	0.85324103	-0.040194476	1.5193597	0.82410484	0.20355726	1.3410509	0.90658394	0.080476873	1.4527564	1.3127953	-0.10722609	1.4589212	1.3119454	0.25765281	1.3730701	1.3502038	0.074990651	1.3594275	1.0140877	-0.15189063	1.4203419	0.99033993	0.3254835	1.4386818	0.79185424	-0.2156433	1.6233523	0.8497969	0.3051099
463	1.848	1.6827679	0.033520635	0.0044865447	1.1527785	0.0846555	0.17908746	1.5567634	0.06643786	-0.013230337	1.1347205	0.22259013	0.20712857	1.5618375	0.080504888	0.073142509	1.1747457	0.21364657	0.12790713	1.4828618	0.040246299	0.032744088	1.1061323	0.26378753	0.14287923	1.6138791	0.43668013	-0.035157222	1.4723165	0.39841258	0.24853817	1.5922206	0.43282066	0.083623684	1.4739025	0.37836876	0.11343465	1.486661	0.81506532	-0.096380394	1.3672732	0.77372581	0.24673799	1.5463099	0.85435683	-0.040700651	1.5252615	0.82603556	0.2034315	1.3468929	0.90825231	0.080049542	1.4588317	1.3144942	-0.10732743	1.4641712	1.3135933	0.25767698	1.3788509	1.3517751	0.074724016	1.3677393	1.0147836	-0.15248425	1.4248879	0.99204367	0.32474238	1.4504451	0.79326849	-0.21461316	1.6252124	0.84846232	0.30594028
464	1.852	1.6827335	0.033530072	0.0044348934	1.1691559	0.085734379	0.18054173	1.5566972	0.066497046	-0.013355568	1.1480366	0.22334237	0.20686044	1.5619041	0.080584839	0.073129279	1.1882839	0.21441263	0.12776183	1.4828122	0.040302208	0.032711599	1.118737	0.26340314	0.1419273	1.6155985	0.43657191	-0.035056243	1.4842598	0.40083773	0.24919498	1.5931687	0.43281508	0.083656894	1.4858818	0.38104362	0.11399264	1.4916698	0.81590269	-0.096783622	1.3755485	0.77510014	0.24606791	1.5516584	0.85547141	-0.041231582	1.5311317	0.82799988	0.20328594	1.3527052	0.90992734	0.079604327	1.4648688	1.3162542	-0.10740847	1.4694235	1.3152473	0.25769317	1.3846068	1.3533441	0.074491602	1.3760603	1.0155136	-0.15304666	1.4295237	0.99379857	0.32399501	1.4622662	0.79480286	-0.21356017	1.6269955	0.84721882	0.30679754
465	1.856	1.6826966	0.033540259	0.0043999661	1.1854608	0.086628349	0.18214207	1.5566401	0.066543162	-0.013427522	1.1613711	0.22386311	0.20658387	1.5619533	0.08065151	0.073128325	1.2019443	0.21488342	0.1275765	1.482751	0.040339563	0.032681772	1.1313196	0.26272801	0.14123146	1.6172966	0.43647909	-0.034880411	1.4961629	0.4034121	0.24979395	1.5939821	0.43286033	0.083740343	1.4981047	0.3836857	0.11445379	1.496433	0.81675388	-0.097136676	1.3840004	0.7765352	0.24539748	1.5569299	0.85658881	-0.041783954	1.5369866	0.82998926	0.20311739	1.3584885	0.91160341	0.079158228	1.4708777	1.3180939	-0.10747942	1.4746727	1.3169045	0.25770119	1.3903407	1.3549108	0.074289237	1.384381	1.0162702	-0.15357597	1.4339918	0.99563279	0.32326589	1.474118	0.79645537	-0.2124721	1.628701	0.8460672	0.30768014
466	1.86	1.6826523	0.033551434	0.0043801954	1.2017761	0.08736448	0.18384015	1.5565795	0.066571654	-0.013445271	1.1746605	0.2241085	0.2063134	1.5619757	0.080706007	0.073138102	1.2157373	0.21507597	0.12739924	1.4826697	0.040338164	0.032647019	1.1439666	0.26179866	0.14068385	1.6189639	0.4363948	-0.034638479	1.5079977	0.40609954	0.25030632	1.5946832	0.43294558	0.083867894	1.5104458	0.38627559	0.11487156	1.5010784	0.81759969	-0.097454608	1.3926132	0.7780265	0.2447437	1.5621549	0.8577129	-0.042355855	1.5428515	0.8319948	0.20292433	1.3642428	0.91327809	0.078736332	1.4768584	1.3200108	-0.10754572	1.4799143	1.3185628	0.25770477	1.3960569	1.3564782	0.074114686	1.3926979	1.0170526	-0.15409212	1.4381411	0.99754237	0.32259528	1.4859813	0.79822127	-0.21134129	1.6303369	0.84500762	0.30858404
467	1.864	1.6826018	0.033564323	0.004375086	1.2181654	0.087956321	0.18559316	1.556512	0.066600045	-0.013437517	1.18795	0.22406812	0.20605353	1.5619715	0.080754874	0.073158288	1.2296725	0.21500785	0.12725394	1.4825707	0.040307816	0.032592238	1.1567935	0.26061794	0.14012037	1.620588	0.43631736	-0.034336366	1.5198033	0.40886676	0.25071316	1.595325	0.43305155	0.084043176	1.5227107	0.38884279	0.11527635	1.5057706	0.81840275	-0.097755152	1.4013645	0.77955488	0.24413857	1.5673691	0.85884581	-0.042936891	1.5487387	0.83400975	0.20270842	1.369993	0.91493264	0.078348149	1.4827996	1.3219668	-0.10759883	1.4851448	1.3202174	0.25770416	1.4017574	1.3580426	0.07396648	1.4010171	1.0178692	-0.15461098	1.4419777	0.99949059	0.32200068	1.497868	0.80009539	-0.21017582	1.6319102	0.84404014	0.30950808
468	1.868	1.6825503	0.033578537	0.0043840144	1.234662	0.088408347	0.18736885	1.5564542	0.06664527	-0.013410965	1.2014437	0.22380387	0.20579771	1.5619479	0.080805767	0.073188872	1.2437465	0.21469848	0.12714982	1.4824776	0.040287712	0.032540535	1.1698331	0.25917326	0.13946987	1.6221591	0.43624711	-0.033984028	1.531612	0.41170199	0.25102834	1.5960628	0.43316068	0.084297118	1.5348358	0.39141552	0.11567304	1.5105318	0.81914485	-0.098036905	1.4102565	0.78108506	0.24360882	1.5725845	0.8599902	-0.043507309	1.5546439	0.83603088	0.20247258	1.3758157	0.91654411	0.077970905	1.4886967	1.3239174	-0.10762388	1.4903706	1.3218607	0.25769429	1.407441	1.3595981	0.073834206	1.4093452	1.0187246	-0.15513469	1.4456307	1.0014357	0.32145828	1.50981	0.80207334	-0.20899376	1.6334203	0.8431631	0.31045644
